<svg version="1.2" xmlns="http://www.w3.org/2000/svg" viewBox="0 0 775 200" width="775" height="200">
	<style>
		.s0 { fill: #ffffff } 
	</style>
	<path class="s0" d="m253.95 175.12v-103.17h34.81v103.17zm17.61-111.56q-8.8 0-13.63-4.4-4.61-4.41-4.61-11.75 0-6.92 4.61-11.74 4.83-4.82 13.63-4.82 8.81 0 13.43 4.82 4.82 4.82 4.82 11.74 0 7.34-4.82 11.75-4.62 4.4-13.43 4.4zm69.14 113.66q-15.1 0-22.86-7.97-7.55-8.18-7.55-22.65v-48.86h-13.84v-25.79h13.84v-25.17h34.81v25.17h22.65v25.79h-22.65v43.83q0 4.82 1.89 6.92 2.1 1.89 6.29 1.89 5.66 0 12.37-5.04l7.97 22.86q-6.08 4.2-13.84 6.71-7.76 2.31-19.08 2.31zm85.62 0q-23.91 0-37.75-13.63-13.63-13.63-13.63-39.63 0-18.88 7.76-31.67 7.97-13.21 19.93-17.82 12.58-4.83 23.28-4.83 13.42 0 22.44 5.45 9.02 5.25 13.21 11.54 4.41 6.29 6.29 9.85l-24.11 15.52q-3.35-6.92-7.34-10.9-3.98-3.99-9.64-3.99-7.97 0-12.58 6.29-4.61 6.3-4.61 19.09 0 13.84 5.45 20.34 5.45 6.5 15.52 6.5 7.97 0 13.21-2.94 5.45-2.94 10.28-7.55l11.12 26q-5.04 4.19-14.89 8.39-9.86 3.98-23.91 3.98zm50.65-2.1v-140.08h35.02v42.57q4.4-3.15 10.69-5.45 6.29-2.52 15.1-2.52 18.46 0 27.47 10.49 9.23 10.49 9.23 29.57v65.43h-35.02v-61.24q0-8.8-3.35-12.79-3.35-4.19-8.81-4.19-4.61 0-8.6 2.1-3.98 2.1-6.71 4.41v71.72h-35.02zm124.4 2.1q-8.39 0-13.21-4.82-4.82-4.83-4.82-12.37 0-7.55 4.82-12.59 4.82-5.03 13.21-5.03 7.97 0 12.79 5.03 4.83 5.04 4.83 12.59 0 7.55-4.82 12.37-4.61 4.82-12.79 4.82zm25.75-2.1v-103.17h34.81v103.17zm17.61-111.54q-8.81 0-13.63-4.4-4.61-4.41-4.61-11.75 0-6.92 4.61-11.74 4.82-4.82 13.63-4.82 8.81 0 13.42 4.82 4.83 4.82 4.83 11.74 0 7.34-4.83 11.75-4.61 4.4-13.42 4.4zm78.67 113.64q-12.16 0-21.6-3.98-9.43-4.2-16.14-11.33-6.5-7.34-10.07-17.19-3.36-10.07-3.36-21.81 0-17.41 7.55-30.41 7.76-12.79 19.3-17.82 11.74-5.04 24.32-5.04 18.03 0 29.77 8.39 11.95 8.39 16.78 20.97 4.82 12.58 4.82 23.91 0 11.74-3.57 21.81-3.35 9.85-10.07 17.19-6.5 7.13-16.15 11.33-9.43 3.99-21.6 3.99zm0-26.84q8.81 0 12.79-7.34 3.99-7.55 3.99-20.13 0-11.95-4.2-19.08-4.19-7.13-12.58-7.13-8.18 0-12.37 7.13-4.19 7.13-4.19 19.08 0 12.58 3.99 20.13 4.2 7.34 12.58 7.34z"/>
	<path class="s0" d="m28.83 2.23c-9.64 5.72-28.64 27.56-28.83 33.28v9.48c0 12.01 11.23 22.57 21.43 22.57 12.24 0 22.44-10.15 22.44-22.19 0 12.04 9.85 22.19 22.09 22.19 12.25 0 21.78-10.15 21.78-22.19 0 12.04 10.47 22.19 22.71 22.19h0.22c12.24 0 22.72-10.15 22.72-22.19 0 12.04 9.53 22.19 21.77 22.19 12.24 0 22.09-10.15 22.09-22.19 0 12.04 10.2 22.19 22.44 22.19 10.19 0 21.42-10.56 21.42-22.57v-9.48c-0.19-5.72-19.19-27.56-28.83-33.28-29.97-1.05-50.76-1.24-81.73-1.23-30.96 0-73.19 0.48-81.72 1.23zm58.76 59.67q-0.44 0.77-0.93 1.5-0.49 0.73-1.04 1.43-0.54 0.69-1.12 1.35-0.59 0.65-1.22 1.27-1.78 1.74-3.86 3.11-2.09 1.37-4.39 2.31-2.31 0.94-4.76 1.42-2.44 0.48-4.93 0.48c-6.99 0-13.36-2.8-17.98-7.32-1.67-1.64-2.94-3.4-4.11-5.44-1.16 2.05-2.79 3.8-4.46 5.44q-1.78 1.75-3.87 3.12-2.09 1.36-4.4 2.31-2.31 0.94-4.76 1.42-2.44 0.47-4.94 0.47c-0.84 0-1.71-0.23-2.42-0.47-0.98 10.25-1.4 20.04-1.54 27.19v0.04c-0.02 3.63-0.04 6.61-0.06 10.75 0.19 21.51-2.13 69.7 9.48 81.54 17.99 4.2 51.1 6.11 84.31 6.12h0.01c33.21-0.01 66.32-1.92 84.31-6.11 11.61-11.84 9.29-60.03 9.48-81.53-0.02-4.14-0.04-7.13-0.06-10.75v-0.04c-0.15-7.15-0.56-16.94-1.55-27.19-0.71 0.24-1.58 0.48-2.43 0.48q-2.49 0-4.94-0.48-2.45-0.48-4.76-1.42-2.31-0.94-4.4-2.31-2.09-1.37-3.87-3.11c-1.68-1.64-3.3-3.4-4.46-5.44l-0.01-0.01c-1.17 2.04-2.44 3.8-4.11 5.44-4.62 4.52-10.99 7.32-17.98 7.32-6.98 0-13.32-2.8-17.94-7.32q-0.63-0.62-1.21-1.27-0.59-0.66-1.13-1.35-0.54-0.7-1.03-1.43-0.5-0.73-0.94-1.5-0.43 0.77-0.91 1.5-0.49 0.73-1.03 1.43-0.53 0.69-1.11 1.35-0.58 0.65-1.21 1.27-1.79 1.74-3.87 3.11-2.09 1.37-4.4 2.31-2.32 0.94-4.77 1.42-2.45 0.48-4.94 0.48-0.37 0-0.73-0.02h-0.01q-0.36 0.02-0.73 0.02c-6.99 0-13.36-2.8-17.98-7.32q-0.62-0.62-1.21-1.27-0.58-0.66-1.12-1.35-0.53-0.7-1.02-1.43-0.48-0.73-0.92-1.49zm-18.46 23.87v0.01h0.02c7.31 0.01 13.81 0 21.85 8.78 6.34-0.66 12.95-1 19.58-0.99h0.01c6.63-0.01 13.24 0.33 19.58 0.99 8.05-8.78 14.54-8.76 21.85-8.78h0.02v-0.01c3.46 0 17.27 0 26.9 27.04l10.35 37.1c7.66 27.6-2.46 28.28-15.08 28.3-18.72-0.69-29.08-14.29-29.08-27.88-10.36 1.7-22.45 2.55-34.53 2.55h-0.01c-12.08 0-24.17-0.85-34.53-2.55 0 13.59-10.36 27.18-29.07 27.88-12.62-0.02-22.74-0.7-15.08-28.29l10.34-37.1c9.63-27.04 23.45-27.04 26.9-27.04zm41.44 21.25v0.01c-0.01 0.02-19.7 18.1-23.24 24.53l12.89-0.52v11.24c0 0.53 5.18 0.31 10.35 0.08h0.01c5.18 0.24 10.35 0.45 10.35-0.08v-11.24l12.89 0.52c-3.54-6.43-23.24-24.53-23.24-24.53q0 0-0.01-0.01z"/>
</svg>