<svg version="1.2" xmlns="http://www.w3.org/2000/svg" viewBox="0 0 222 200" width="222" height="200">
	<style>
		.s0 { fill: #ffffff } 
	</style>
	<path class="s0" d="m28.83 2.23c-9.64 5.72-28.64 27.56-28.83 33.28v9.48c0 12.01 11.23 22.57 21.43 22.57 12.24 0 22.44-10.15 22.44-22.19 0 12.04 9.85 22.19 22.09 22.19 12.25 0 21.78-10.15 21.78-22.19 0 12.04 10.47 22.19 22.71 22.19h0.22c12.24 0 22.72-10.15 22.72-22.19 0 12.04 9.53 22.19 21.77 22.19 12.24 0 22.09-10.15 22.09-22.19 0 12.04 10.2 22.19 22.44 22.19 10.19 0 21.42-10.56 21.42-22.57v-9.48c-0.19-5.72-19.19-27.56-28.83-33.28-29.97-1.05-50.76-1.24-81.73-1.23-30.96 0-73.19 0.48-81.72 1.23zm58.76 59.67q-0.44 0.77-0.93 1.5-0.49 0.73-1.04 1.43-0.54 0.69-1.12 1.35-0.59 0.65-1.22 1.27-1.78 1.74-3.86 3.11-2.09 1.37-4.39 2.31-2.31 0.94-4.76 1.42-2.44 0.48-4.93 0.48c-6.99 0-13.36-2.8-17.98-7.32-1.67-1.64-2.94-3.4-4.11-5.44-1.16 2.05-2.79 3.8-4.46 5.44q-1.78 1.75-3.87 3.12-2.09 1.36-4.4 2.31-2.31 0.94-4.76 1.42-2.44 0.47-4.94 0.47c-0.84 0-1.71-0.23-2.42-0.47-0.98 10.25-1.4 20.04-1.54 27.19v0.04c-0.02 3.63-0.04 6.61-0.06 10.75 0.19 21.51-2.13 69.7 9.48 81.54 17.99 4.2 51.1 6.11 84.31 6.12h0.01c33.21-0.01 66.32-1.92 84.31-6.11 11.61-11.84 9.29-60.03 9.48-81.53-0.02-4.14-0.04-7.13-0.06-10.75v-0.04c-0.15-7.15-0.56-16.94-1.55-27.19-0.71 0.24-1.58 0.48-2.43 0.48q-2.49 0-4.94-0.48-2.45-0.48-4.76-1.42-2.31-0.94-4.4-2.31-2.09-1.37-3.87-3.11c-1.68-1.64-3.3-3.4-4.46-5.44l-0.01-0.01c-1.17 2.04-2.44 3.8-4.11 5.44-4.62 4.52-10.99 7.32-17.98 7.32-6.98 0-13.32-2.8-17.94-7.32q-0.63-0.62-1.21-1.27-0.59-0.66-1.13-1.35-0.54-0.7-1.03-1.43-0.5-0.73-0.94-1.5-0.43 0.77-0.91 1.5-0.49 0.73-1.03 1.43-0.53 0.69-1.11 1.35-0.58 0.65-1.21 1.27-1.79 1.74-3.87 3.11-2.09 1.37-4.4 2.31-2.32 0.94-4.77 1.42-2.45 0.48-4.94 0.48-0.37 0-0.73-0.02h-0.01q-0.36 0.02-0.73 0.02c-6.99 0-13.36-2.8-17.98-7.32q-0.62-0.62-1.21-1.27-0.58-0.66-1.12-1.35-0.53-0.7-1.02-1.43-0.48-0.73-0.92-1.49zm-18.46 23.87v0.01h0.02c7.31 0.01 13.81 0 21.85 8.78 6.34-0.66 12.95-1 19.58-0.99h0.01c6.63-0.01 13.24 0.33 19.58 0.99 8.05-8.78 14.54-8.76 21.85-8.78h0.02v-0.01c3.46 0 17.27 0 26.9 27.04l10.35 37.1c7.66 27.6-2.46 28.28-15.08 28.3-18.72-0.69-29.08-14.29-29.08-27.88-10.36 1.7-22.45 2.55-34.53 2.55h-0.01c-12.08 0-24.17-0.85-34.53-2.55 0 13.59-10.36 27.18-29.07 27.88-12.62-0.02-22.74-0.7-15.08-28.29l10.34-37.1c9.63-27.04 23.45-27.04 26.9-27.04zm41.44 21.25v0.01c-0.01 0.02-19.7 18.1-23.24 24.53l12.89-0.52v11.24c0 0.53 5.18 0.31 10.35 0.08h0.01c5.18 0.24 10.35 0.45 10.35-0.08v-11.24l12.89 0.52c-3.54-6.43-23.24-24.53-23.24-24.53q0 0-0.01-0.01z"/>
</svg>